<?xml version="1.0" standalone="no"?>
<!DOCTYPE svg PUBLIC "-//W3C//DTD SVG 20010904//EN"
 "http://www.w3.org/TR/2001/REC-SVG-20010904/DTD/svg10.dtd">
<svg version="1.0" xmlns="http://www.w3.org/2000/svg"
 width="280.000000pt" height="280.000000pt" viewBox="0 0 280.000000 280.000000"
 preserveAspectRatio="xMidYMid meet">

<g transform="translate(0.000000,280.000000) scale(0.100000,-0.100000)"
fill="#000000" stroke="none">
<path d="M360 1766 c-62 -16 -115 -58 -140 -112 -65 -133 -19 -233 140 -307
122 -56 148 -85 120 -137 -23 -42 -114 -32 -126 15 -5 19 -12 25 -35 25 -33 0
-33 0 -15 -44 20 -49 60 -76 113 -76 78 0 123 42 123 113 0 59 -31 91 -132
140 -138 66 -166 101 -155 193 13 116 144 180 249 122 42 -24 88 -90 88 -126
0 -17 6 -22 25 -22 21 0 25 5 25 28 -1 76 -74 161 -162 187 -60 17 -59 17
-118 1z"/>
<path d="M950 1766 c-147 -33 -251 -134 -287 -281 -30 -124 7 -252 100 -346
28 -27 75 -61 106 -76 50 -25 67 -28 156 -28 83 0 108 4 149 23 149 68 234
208 224 368 -11 168 -129 304 -296 339 -78 17 -80 17 -152 1z m213 -75 c64
-31 124 -93 155 -159 35 -75 37 -184 5 -254 -30 -66 -95 -133 -162 -165 -74
-37 -191 -39 -261 -6 -118 56 -190 166 -190 289 0 41 7 89 17 118 31 85 118
166 213 197 47 16 173 4 223 -20z"/>
<path d="M942 1662 c-150 -54 -227 -211 -173 -354 40 -105 126 -169 238 -176
87 -6 152 18 212 78 137 137 96 362 -82 440 -68 30 -132 34 -195 12z m159 -54
c107 -37 166 -150 138 -263 -16 -63 -87 -138 -144 -154 -149 -41 -284 57 -285
207 0 156 144 261 291 210z"/>
<path d="M1562 1761 c-63 -22 -107 -61 -133 -116 -20 -43 -25 -128 -10 -168
18 -46 82 -98 175 -141 104 -49 129 -79 101 -122 -30 -47 -103 -41 -127 11 -8
18 -19 25 -39 25 -23 0 -26 -3 -21 -22 15 -61 64 -98 129 -98 77 0 132 62 119
135 -9 45 -59 87 -151 126 -135 58 -174 132 -124 236 68 141 291 112 316 -41
5 -32 9 -36 35 -36 29 0 30 1 23 37 -26 138 -163 220 -293 174z"/>
<path d="M2162 1765 c-113 -25 -208 -100 -260 -205 -24 -50 -27 -65 -27 -160
1 -84 5 -114 22 -150 33 -72 113 -153 185 -186 56 -26 74 -29 158 -29 84 0
102 3 158 29 79 37 160 122 191 202 28 75 29 192 1 266 -65 173 -248 273 -428
233z m213 -72 c66 -35 122 -90 152 -151 24 -49 28 -69 28 -142 0 -70 -4 -93
-24 -132 -33 -64 -91 -122 -154 -155 -45 -23 -64 -27 -137 -27 -73 0 -92 4
-137 27 -224 116 -245 413 -39 554 65 45 97 53 191 49 57 -2 91 -8 120 -23z"/>
<path d="M2185 1670 c-110 -27 -181 -96 -209 -204 -45 -171 84 -336 264 -336
219 0 347 235 229 421 -36 57 -93 98 -161 116 -57 14 -77 15 -123 3z m174 -83
c62 -41 94 -99 99 -177 3 -58 0 -71 -27 -117 -44 -74 -104 -108 -192 -108 -56
0 -73 5 -114 30 -94 58 -133 187 -84 280 25 49 82 102 123 115 58 18 150 7
195 -23z"/>
<path d="M360 1662 c-19 -9 -43 -32 -53 -50 -41 -70 7 -147 120 -192 112 -45
163 -96 163 -163 0 -97 -81 -177 -179 -177 -46 0 -110 40 -136 84 -14 24 -25
52 -25 64 0 18 -6 22 -31 22 -29 0 -30 -1 -24 -32 18 -82 80 -155 151 -178 22
-7 61 -10 96 -7 72 6 126 39 165 99 24 36 28 51 28 118 0 69 -3 80 -28 114
-32 42 -77 72 -157 105 -69 29 -100 57 -100 91 0 35 29 60 68 60 34 0 72 -29
72 -55 0 -9 9 -15 25 -15 54 0 15 88 -51 116 -44 18 -62 18 -104 -4z"/>
<path d="M1575 1661 c-38 -17 -62 -47 -66 -81 -7 -69 28 -109 152 -169 108
-53 139 -88 139 -157 0 -56 -11 -84 -49 -122 -41 -40 -90 -56 -149 -47 -38 5
-55 15 -89 51 -26 27 -44 57 -49 79 -5 28 -11 35 -30 35 -20 0 -24 -5 -24 -28
0 -66 76 -159 148 -180 120 -36 225 10 278 123 28 60 30 106 5 160 -26 58 -57
84 -167 140 -78 39 -101 56 -109 78 -26 76 98 108 133 34 9 -18 21 -27 38 -27
28 0 30 10 7 57 -11 24 -30 42 -57 54 -51 23 -61 23 -111 0z"/>
</g>
</svg>
